<svg xmlns="http://www.w3.org/2000/svg"  viewBox="0 0 64 64" width="64px" height="64px"><path fill="#FAB400" d="M6,30v6c0,2.209,1.791,4,4,4h12c2.209,0,4-1.791,4-4v-6H6z"/><path fill="#F0C8A0" d="M32,33l4.683-4.098C37.976,27.771,40,28.689,40,30.408v0.685c0,0.577-0.249,1.125-0.683,1.505L32,39V33z"/><polygon fill="#D2AA82" points="12,40 12,36 20,36 20,40 16,44"/><path fill="#FA6450" d="M25.131,39.01C24.402,39.648,23.466,40,22.497,40H20l-4,4l-4-4l-6.894,3.447 C4.428,43.786,4,44.479,4,45.236V60h20V47.815c0-1.154,0.498-2.251,1.366-3.01L32,39v-6L25.131,39.01z"/><path fill="#F0C8A0" d="M26,26h-2v-6c0-1.105-0.895-2-2-2H10c-1.105,0-2,0.895-2,2v6H6c-1.105,0-2,0.895-2,2v0.764 c0,0.758,0.428,1.45,1.106,1.789L8,32v0.343c0,1.061,0.421,2.078,1.172,2.828l1.657,1.657c0.75,0.75,1.768,1.172,2.828,1.172 h4.686c1.061,0,2.078-0.421,2.828-1.172l1.657-1.657c0.75-0.75,1.172-1.768,1.172-2.828V32l2.894-1.447 C27.572,30.214,28,29.521,28,28.764V28C28,26.895,27.105,26,26,26z"/><path fill="#DC9600" d="M26,28L26,28c-2.209,0-4-1.791-4-4v-6h2c1.105,0,2,0.895,2,2V28z"/><path fill="#FAB400" d="M20,14h-8c-3.314,0-6,2.686-6,6v4c0,1.105,0.895,2,2,2h5.029c3.183,0,6.235-1.264,8.485-3.515 l1.314-1.314c0.75-0.75,1.172-1.768,1.172-2.828V18C24,15.791,22.209,14,20,14z"/><path fill="#BE7800" d="M14,28.5h-4c-0.276,0-0.5-0.224-0.5-0.5s0.224-0.5,0.5-0.5h4c0.276,0,0.5,0.224,0.5,0.5 S14.276,28.5,14,28.5z"/><path fill="#BE7800" d="M16,34.499c-0.641,0-1.28-0.244-1.768-0.731l-0.586-0.585c-0.195-0.195-0.195-0.512,0-0.707 s0.512-0.195,0.707,0l0.586,0.585c0.584,0.585,1.537,0.585,2.121,0l0.586-0.585c0.195-0.195,0.512-0.195,0.707,0 s0.195,0.512,0,0.707l-0.586,0.585C17.28,34.255,16.64,34.499,16,34.499z"/><circle cx="13" cy="29" r="1" fill="#BE7800"/><path fill="#BE7800" d="M22,28.5h-4c-0.276,0-0.5-0.224-0.5-0.5s0.224-0.5,0.5-0.5h4c0.276,0,0.5,0.224,0.5,0.5 S22.276,28.5,22,28.5z"/><circle cx="19" cy="29" r="1" fill="#BE7800"/><path fill="#F0C8A0" d="M34,32h2v-3c0-0.552-0.448-1-1-1l0,0c-0.552,0-1,0.448-1,1V32z"/><path fill="#DC4632" d="M9.106,43.447l4.228-2.114L12,40l-6.894,3.447C4.428,43.786,4,44.479,4,45.236V60h4V45.236 C8,44.479,8.428,43.786,9.106,43.447z"/><polygon fill="#F0F0F0" points="34,31.25 32,33 32,39 34,37.25"/><path fill="#505050" d="M38,34L38,34c1.105,0,2-0.895,2-2V22h-4v10C36,33.105,36.895,34,38,34z"/><path fill="#3C3C3C" d="M38,32V22h-2v10c0,1.105,0.895,2,2,2c0.366,0,0.705-0.106,1-0.277C38.405,33.376,38,32.738,38,32z"/><rect width="4" height="2" x="36" y="26" fill="#FAB400"/><rect width="2" height="2" x="36" y="26" fill="#DC9600"/><path fill="#505050" d="M38,24c-5.514,0-10-4.486-10-10S32.486,4,38,4s10,4.486,10,10S43.514,24,38,24z"/><path fill="#3C3C3C" d="M30,14c0-5.177,3.954-9.446,9-9.949C38.671,4.018,38.338,4,38,4c-5.514,0-10,4.486-10,10s4.486,10,10,10 c0.338,0,0.671-0.018,1-0.051C33.954,23.446,30,19.177,30,14z"/><circle cx="38" cy="14" r="8" fill="#64C8F0"/><path fill="#F0F0F0" d="M32,14l1.757-1.757c2.343-2.343,6.142-2.343,8.485,0L44,14l-1.757,1.757 c-2.343,2.343-6.142,2.343-8.485,0L32,14z"/><path fill="#64C8F0" d="M39,14c-0.552,0-1-0.448-1-1c0-0.403,0.241-0.745,0.584-0.903C38.398,12.04,38.205,12,38,12 c-1.105,0-2,0.895-2,2c0,1.105,0.895,2,2,2s2-0.895,2-2c0-0.205-0.04-0.398-0.097-0.584C39.745,13.759,39.403,14,39,14z"/><path fill="#F0C8A0" d="M40,52L40,52c-3.314,0-6-2.686-6-6v0c0-3.314,2.686-6,6-6h0c3.314,0,6,2.686,6,6v0 C46,49.314,43.314,52,40,52z"/><path fill="#FAB400" d="M34,46L34,46c0-3.314,2.686-6,6-6h0c3.314,0,6,2.686,6,6v0H34z"/><path fill="#D2AA82" d="M38,46c0-2.611,1.671-4.827,4-5.651C41.374,40.127,40.702,40,40,40c-3.314,0-6,2.686-6,6s2.686,6,6,6 c0.702,0,1.374-0.127,2-0.349C39.671,50.827,38,48.611,38,46z"/><path fill="#DC9600" d="M42,40.349C41.374,40.127,40.702,40,40,40c-3.314,0-6,2.686-6,6h4C38,43.389,39.671,41.173,42,40.349z"/><path fill="#3CC8B4" d="M46,60H34v-2c0-3.314,2.686-6,6-6h0c3.314,0,6,2.686,6,6V60z"/><path fill="#1EAA96" d="M42,52.349C41.374,52.127,40.702,52,40,52c-3.314,0-6,2.686-6,6v2h4v-2 C38,55.389,39.671,53.173,42,52.349z"/><path fill="#F0C8A0" d="M54,52L54,52c-3.314,0-6-2.686-6-6v0c0-3.314,2.686-6,6-6h0c3.314,0,6,2.686,6,6v0 C60,49.314,57.314,52,54,52z"/><path fill="#FAB400" d="M48,46L48,46c0-3.314,2.686-6,6-6h0c3.314,0,6,2.686,6,6v0H48z"/><path fill="#D2AA82" d="M52,46c0-2.611,1.671-4.827,4-5.651C55.374,40.127,54.702,40,54,40c-3.314,0-6,2.686-6,6s2.686,6,6,6 c0.702,0,1.374-0.127,2-0.349C53.671,50.827,52,48.611,52,46z"/><path fill="#DC9600" d="M56,40.349C55.374,40.127,54.702,40,54,40c-3.314,0-6,2.686-6,6h4C52,43.389,53.671,41.173,56,40.349z"/><path fill="#3CC8B4" d="M60,60H48v-2c0-3.314,2.686-6,6-6h0c3.314,0,6,2.686,6,6V60z"/><path fill="#1EAA96" d="M56,52.349C55.374,52.127,54.702,52,54,52c-3.314,0-6,2.686-6,6v2h4v-2 C52,55.389,53.671,53.173,56,52.349z"/><path fill="#FA6450" d="M27,32L27,32c-0.552,0-1-0.448-1-1v0c0-0.552,0.448-1,1-1h0c0.552,0,1,0.448,1,1v0 C28,31.552,27.552,32,27,32z"/><path fill="#FA6450" d="M5,32L5,32c-0.552,0-1-0.448-1-1v0c0-0.552,0.448-1,1-1h0c0.552,0,1,0.448,1,1v0C6,31.552,5.552,32,5,32z"/><polygon fill="#F0F0F0" points="12,40 12,60 20,60 20,40 16,44"/><polygon fill="#D2D2D2" points="12,40 12,42.829 16,46.829 20,42.829 20,40 16,44"/></svg>